<?xml version="1.0" encoding="UTF-8" standalone="no"?>
<!-- Generator: Adobe Illustrator 27.1.1, SVG Export Plug-In . SVG Version: 6.00 Build 0)  -->

<svg
   version="1.1"
   id="Laag_1"
   x="0px"
   y="0px"
   viewBox="0 0 1275 1275"
   xml:space="preserve"
   sodipodi:docname="Pin_illustration_UseBackgroundBlueBG.svg"
   width="1275"
   height="1275"
   inkscape:version="1.2.2 (732a01da63, 2022-12-09)"
   xmlns:inkscape="http://www.inkscape.org/namespaces/inkscape"
   xmlns:sodipodi="http://sodipodi.sourceforge.net/DTD/sodipodi-0.dtd"
   xmlns="http://www.w3.org/2000/svg"
   xmlns:svg="http://www.w3.org/2000/svg"><defs
   id="defs17" /><sodipodi:namedview
   id="namedview15"
   pagecolor="#ffffff"
   bordercolor="#666666"
   borderopacity="1.0"
   inkscape:showpageshadow="2"
   inkscape:pageopacity="0.0"
   inkscape:pagecheckerboard="0"
   inkscape:deskcolor="#d1d1d1"
   showgrid="false"
   inkscape:zoom="0.4745098"
   inkscape:cx="636.44629"
   inkscape:cy="594.29753"
   inkscape:window-width="1920"
   inkscape:window-height="1017"
   inkscape:window-x="-8"
   inkscape:window-y="-8"
   inkscape:window-maximized="1"
   inkscape:current-layer="Laag_1" />
<style
   type="text/css"
   id="style2">
	.st0{fill:none;}
	.st1{fill:#F7F5F0;}
	.st2{fill:#0F1941;}
</style>
<g
   id="g6">
	<rect
   class="st0"
   width="1275"
   height="850"
   id="rect4"
   x="0"
   y="0" />
</g>
<g
   id="g12"
   transform="matrix(1.2605125,0,0,1.2605125,-166.07672,101.8373)">
	<path
   class="st1"
   d="M 823.5,408 C 766.9,408 721,453.9 721,510.5 c 0,11.2 1.1,22.2 5.1,32.1 13,31.8 35.7,54.3 91,107.9 3.6,3.5 9.3,3.5 12.9,0 41.6,-40.1 80.1,-78 90.7,-107.2 3.7,-10.2 5.4,-21.4 5.4,-32.9 C 926.1,453.9 880.2,408 823.5,408 Z m 2.2,141.9 c -24.9,1.3 -45.3,-19.2 -44,-44 1.1,-21.3 18.4,-38.6 39.7,-39.7 24.9,-1.3 45.3,19.2 44,44 -1.1,21.3 -18.4,38.6 -39.7,39.7 z"
   id="path8" />
	<path
   class="st2"
   d="m 572.2,158 c -123.3,0 -223.3,100 -223.3,223.3 0,24.4 2.4,48.4 11.1,69.8 28.3,69.4 77.8,118.3 198.1,235.1 7.8,7.6 20.3,7.6 28.1,0.1 90.7,-87.4 174.4,-169.8 197.5,-233.4 8.1,-22.3 11.7,-46.5 11.7,-71.6 C 795.4,258 695.5,158 572.2,158 Z m 4.7,309.1 c -54.1,2.7 -98.6,-41.7 -95.9,-95.9 2.3,-46.4 40,-84 86.4,-86.4 54.1,-2.7 98.6,41.7 95.9,95.9 -2.4,46.3 -40,84 -86.4,86.4 z"
   id="path10" />
</g>
</svg>
